<?xml version="1.0" encoding="UTF-8"?>
<!DOCTYPE svg PUBLIC "-//W3C//DTD SVG 1.1//EN" "http://www.w3.org/Graphics/SVG/1.1/DTD/svg11.dtd">
<!-- Creator: CorelDRAW X8 -->
<svg xmlns="http://www.w3.org/2000/svg" xml:space="preserve" width="297mm" height="210mm" version="1.1" style="shape-rendering:geometricPrecision; text-rendering:geometricPrecision; image-rendering:optimizeQuality; fill-rule:evenodd; clip-rule:evenodd"
viewBox="0 0 29700 21000"
 xmlns:xlink="http://www.w3.org/1999/xlink">
 <defs>
  <style type="text/css">
   <![CDATA[
    .fil2 {fill:none}
    .fil4 {fill:#2B2A29}
    .fil0 {fill:#FFF7B2}
    .fil3 {fill:#2B2A29;fill-rule:nonzero}
    .fil1 {fill:#2B2A29;fill-rule:nonzero}
   ]]>
  </style>
 </defs>
 <g id="Слой_x0020_1">
  <metadata id="CorelCorpID_0Corel-Layer"/>
  <g id="_617260848">
   <polygon class="fil0" points="19176,12593 21112,12593 21112,9718 23247,9718 23247,12593 28423,12593 28423,13947 20196,13947 20196,13773 18290,13766 5844,8810 6922,6107 7799,6457 6950,8588 9010,9408 9860,7279 10901,7694 10052,9823 18201,13067 19176,13075 "/>
   <polygon class="fil1" points="17036,13290 13270,11788 13282,11759 17048,13260 "/>
   <polygon class="fil1" points="8761,9991 6543,9106 6554,9076 8773,9961 "/>
   <polygon class="fil1" points="6171,8958 5838,8825 5850,8795 6183,8928 "/>
   <polygon class="fil1" points="7116,11652 1477,9403 1468,9400 1467,9390 1262,6776 1261,6760 1278,6759 1679,6740 1696,4863 1697,4847 1713,4847 3840,4862 3843,4862 3846,4863 6928,6092 6942,6098 6936,6113 6174,8025 6144,8014 6901,6116 3837,4894 1728,4879 1711,6755 1711,6771 1696,6771 1296,6790 1498,9377 7128,11622 "/>
   <line class="fil2" x1="5047" y1="10809" x2="5956" y2= "8529" />
   <polygon class="fil1" points="5032,10804 5941,8523 5971,8535 5062,10815 "/>
   <polygon class="fil1" points="11253,13301 9185,12476 9196,12447 11265,13271 "/>
   <line class="fil2" x1="6084" y1="11223" x2="6881" y2= "9224" />
   <polygon class="fil1" points="6069,11217 6866,9218 6896,9230 6099,11229 "/>
   <polygon class="fil1" points="8713,10970 8495,10883 8506,10853 8725,10940 "/>
   <polygon class="fil1" points="12130,14064 12732,12555 12762,12567 12160,14076 "/>
   <polygon class="fil1" points="13213,12747 13308,12508 13314,12493 13329,12499 13882,12720 13897,12726 13891,12741 13195,14488 13189,14503 13174,14497 11105,13673 11090,13667 11096,13652 11793,11904 11799,11889 11814,11895 12367,12116 12382,12122 12376,12137 12281,12376 12251,12364 12341,12140 11817,11931 11132,13649 13171,14462 13856,12744 13332,12535 13243,12759 "/>
   <polygon class="fil1" points="15391,14950 13322,14126 13334,14096 15402,14921 "/>
   <polygon class="fil1" points="12850,12620 12632,12533 12644,12503 12862,12590 "/>
   <polygon class="fil1" points="16268,15714 16869,14205 16899,14217 16298,15726 "/>
   <polygon class="fil1" points="17350,14397 17445,14158 17451,14143 17466,14149 18020,14369 18035,14375 18029,14390 17332,16138 17326,16153 17311,16147 15242,15322 15228,15316 15234,15301 15930,13554 15936,13539 15951,13545 16505,13765 16520,13771 16514,13786 16418,14025 16389,14013 16478,13789 15954,13580 15269,15298 17308,16111 17993,14393 17469,14184 17380,14408 "/>
   <polygon class="fil1" points="14347,14517 15144,12518 15174,12530 14377,14529 "/>
   <polygon class="fil1" points="10210,12868 11007,10869 11037,10881 10240,12880 "/>
   <polygon class="fil1" points="21922,13931 23336,13931 23352,13931 23352,13947 23352,16066 23352,16082 23336,16082 21388,16082 21372,16082 21372,16066 21372,13947 21372,13931 21388,13931 21563,13931 21563,13963 21404,13963 21404,16050 23320,16050 23320,13963 21922,13963 "/>
   <polygon class="fil1" points="23870,13931 25420,13931 25436,13931 25436,13947 25436,16066 25436,16082 25420,16082 23336,16082 23320,16082 23320,16066 23320,13947 23320,13931 23336,13931 23511,13931 23511,13963 23352,13963 23352,16050 25404,16050 25404,13963 23870,13963 "/>
   <polygon class="fil1" points="25954,13931 27800,13931 27816,13931 27816,13947 27816,15917 27816,15933 27800,15933 27308,15933 27308,16066 27308,16082 27292,16082 25420,16082 25404,16082 25404,16066 25404,13947 25404,13931 25420,13931 25595,13931 25595,13963 25436,13963 25436,16050 27275,16050 27275,15917 27275,15901 27292,15901 27784,15901 27784,13963 25954,13963 "/>
   <polygon class="fil1" points="19160,13075 19160,11294 19160,11291 19161,11288 19436,10669 19440,10659 19451,10659 21112,10659 21129,10659 21129,10675 21129,12234 21096,12234 21096,10691 19461,10691 19192,11298 19192,13075 "/>
   <polygon class="fil1" points="21112,12609 19678,12609 19678,12576 21112,12576 "/>
   <polygon class="fil1" points="20297,10675 20297,12593 20265,12593 20265,10675 "/>
   <polygon class="fil1" points="23263,11442 23263,12576 25366,12576 25366,9734 21129,9734 21129,10675 21096,10675 21096,9718 21096,9702 21112,9702 25382,9702 25398,9702 25398,9718 25398,12593 25398,12609 25382,12609 23247,12609 23231,12609 23231,12593 23231,11442 "/>
   <polygon class="fil1" points="20705,13931 21388,13931 21404,13931 21404,13947 21404,15896 21404,15912 21388,15912 19176,15912 19160,15912 19160,15896 19160,13773 19160,13757 19176,13757 20196,13757 20212,13757 20212,13773 20212,15537 20180,15537 20180,13790 19192,13790 19192,15880 21372,15880 21372,13963 20705,13963 "/>
   <polygon class="fil1" points="20721,14306 20721,15896 20689,15896 20689,14306 "/>
   <polygon class="fil1" points="26042,12609 25382,12609 25366,12609 25366,12593 25366,11589 25366,11573 25382,11573 28423,11573 28439,11573 28439,11589 28439,13947 28439,13963 28423,13963 27800,13963 27800,13931 28407,13931 28407,11605 25398,11605 25398,12576 26042,12576 "/>
   <polygon class="fil1" points="26416,11589 26416,12593 26384,12593 26384,11589 "/>
   <polygon class="fil1" points="27438,11589 27438,12593 27406,12593 27406,11589 "/>
   <polygon class="fil1" points="26759,12576 28064,12576 28064,12609 26759,12609 "/>
   <polygon class="fil1" points="19320,12609 19176,12609 19176,12576 19320,12576 "/>
   <polygon class="fil1" points="19176,13790 18286,13787 18283,13787 18280,13786 17408,13438 17420,13408 18289,13755 19176,13757 "/>
   <polygon class="fil1" points="16987,14269 16769,14182 16781,14152 16999,14239 "/>
   <polygon class="fil1" points="19177,16097 18289,16105 18286,16105 18283,16104 17459,15775 17471,15745 18292,16073 19177,16065 "/>
   <polygon class="fil1" points="23231,11083 23231,9718 23263,9718 23263,11083 "/>
   <polygon class="fil1" points="26058,12399 26058,12593 26025,12593 26025,12399 "/>
   <polygon class="fil1" points="19161,16081 19160,13773 19192,13773 19193,16081 "/>
   <polyline class="fil2" points="19176,13075 18198,13072 9741,9701 "/>
   <path class="fil1" d="M9236 9517l-2292 -914 -15 -6 6 -15 257 -645 30 11 -251 631 2277 908 -12 30zm-1889 -1970l432 -1081 -863 -344 12 -30 877 350 15 6 -6 15 -437 1096 -30 -12z"/>
   <line class="fil2" x1="8152" y1="9067" x2="9001" y2= "6936" />
   <polygon class="fil1" points="8137,9061 8986,6930 9016,6942 8167,9073 "/>
   <polygon class="fil1" points="7122,6170 11766,8021 11780,8027 11775,8042 10925,10172 10895,10161 11739,8045 7110,6199 "/>
   <path class="fil3" d="M3466 7616l17 0 0 116 78 -116 19 0 0 147 -17 0 0 -116 -78 116 -19 0 0 -147zm144 41l61 0 0 14 -43 0 0 92 -18 0 0 -106zm74 146l0 -146 17 0 0 13c3,-5 8,-9 13,-12 4,-2 10,-4 17,-4 9,0 17,3 24,7 7,5 12,11 16,20 3,8 5,18 5,28 0,11 -2,20 -6,29 -4,9 -9,15 -17,20 -7,5 -15,7 -23,7 -6,0 -11,-1 -16,-4 -5,-2 -9,-6 -12,-9l0 51 -18 0zm17 -93c0,14 2,24 8,30 5,7 12,10 20,10 8,0 15,-3 20,-10 6,-7 9,-17 9,-31 0,-14 -3,-24 -9,-31 -5,-6 -12,-10 -19,-10 -8,0 -15,4 -21,11 -5,7 -8,18 -8,31zm90 0c0,-20 6,-35 16,-44 10,-8 21,-12 34,-12 14,0 26,5 36,15 9,9 13,22 13,39 0,14 -2,24 -6,32 -4,8 -10,14 -18,18 -7,5 -16,7 -25,7 -15,0 -27,-5 -36,-14 -9,-10 -14,-24 -14,-41zm19 0c0,13 2,23 8,30 6,7 14,10 23,10 9,0 16,-3 22,-10 6,-7 9,-17 9,-31 0,-13 -3,-23 -9,-30 -6,-6 -13,-10 -22,-10 -9,0 -17,4 -23,10 -6,7 -8,17 -8,31zm101 -53l42 0c10,0 18,0 23,2 4,2 9,5 12,9 4,5 6,10 6,17 0,5 -1,9 -4,13 -2,4 -5,7 -9,9 5,2 9,5 12,10 4,4 5,10 5,16 0,10 -4,17 -10,22 -7,5 -16,8 -29,8l-48 0 0 -106zm18 44l20 0c7,0 12,0 15,-1 3,-1 6,-2 8,-5 2,-2 3,-5 3,-9 0,-5 -2,-9 -6,-11 -4,-2 -10,-4 -20,-4l-20 0 0 30zm0 47l24 0c10,0 17,-1 21,-4 4,-2 6,-6 6,-12 0,-3 -1,-6 -3,-9 -3,-3 -5,-5 -9,-6 -3,-1 -9,-1 -17,-1l-22 0 0 32zm158 1c-7,6 -13,10 -19,12 -6,3 -13,4 -20,4 -12,0 -21,-3 -27,-9 -6,-5 -9,-13 -9,-21 0,-6 1,-10 3,-15 3,-4 6,-7 9,-10 4,-2 9,-4 13,-6 4,-1 9,-2 16,-2 15,-2 26,-4 33,-7 0,-2 0,-4 0,-4 0,-8 -2,-13 -6,-16 -4,-4 -11,-6 -20,-6 -8,0 -15,2 -19,5 -4,3 -7,8 -9,15l-17 -2c1,-8 4,-14 8,-18 3,-5 9,-8 16,-11 6,-2 15,-4 24,-4 9,0 16,1 22,4 5,2 10,4 12,8 3,3 5,7 6,12 0,3 1,8 1,16l0 24c0,17 0,27 1,32 1,4 2,9 4,13l-18 0c-2,-4 -3,-9 -4,-14zm-1 -40c-7,3 -17,5 -30,7 -7,1 -12,2 -16,4 -3,1 -5,3 -7,6 -1,2 -2,5 -2,8 0,5 2,9 5,12 4,3 9,5 16,5 7,0 13,-2 19,-5 5,-3 9,-7 12,-12 2,-4 3,-10 3,-18l0 -7zm129 -52l0 106 -18 0 0 -42 -10 0c-7,0 -11,1 -14,3 -4,1 -8,7 -14,16l-16 23 -22 0 19 -29c6,-9 12,-13 18,-15 -10,-1 -18,-5 -23,-11 -5,-6 -7,-13 -7,-20 0,-10 3,-17 9,-23 7,-6 16,-8 29,-8l49 0zm-18 14l-26 0c-10,0 -17,2 -20,5 -3,4 -5,8 -5,12 0,7 2,11 7,14 4,3 13,5 24,5l20 0 0 -36z"/>
   <path class="fil3" d="M9659 8415l92 0 0 146 -20 0 0 -129 -52 0 0 75c0,16 -1,27 -2,34 -2,7 -5,13 -9,17 -5,4 -11,6 -18,6 -4,0 -9,-1 -15,-3l3 -17c3,1 6,2 8,2 5,0 8,-1 10,-5 2,-3 3,-11 3,-23l0 -103zm121 40l18 0 0 81 50 -81 20 0 0 106 -18 0 0 -80 -50 80 -20 0 0 -106zm176 -40l18 0 0 50c4,-4 8,-7 12,-9 5,-2 10,-3 15,-3 12,0 22,5 30,16 7,10 11,23 11,39 0,17 -4,30 -12,40 -8,10 -18,15 -30,15 -4,0 -7,0 -11,-1 -4,-2 -9,-5 -15,-10l0 50 -18 0 0 -50c-3,4 -7,7 -12,8 -4,2 -9,3 -14,3 -11,0 -21,-5 -29,-14 -8,-10 -12,-24 -12,-42 0,-15 3,-28 11,-39 7,-10 17,-15 30,-15 6,0 10,1 15,3 4,2 8,5 11,9l0 -50zm18 94c0,15 2,26 7,32 4,5 10,8 16,8 7,0 14,-4 19,-10 5,-7 7,-17 7,-32 0,-13 -2,-23 -7,-30 -4,-6 -10,-9 -18,-9 -8,0 -14,3 -18,10 -4,7 -6,17 -6,31zm-67 -3c0,15 3,26 8,33 5,6 11,10 18,10 8,0 14,-4 18,-10 3,-7 5,-17 5,-30 0,-14 -2,-24 -6,-31 -4,-7 -10,-10 -18,-10 -7,0 -13,3 -18,10 -5,7 -7,16 -7,28zm142 -51l86 0 0 15 -34 0 0 91 -18 0 0 -91 -34 0 0 -15zm204 0l18 0 0 106 -18 0 0 -106zm-101 0l18 0 0 42 23 0c15,0 26,2 34,8 8,6 12,14 12,24 0,9 -3,16 -10,23 -6,6 -17,9 -32,9l-45 0 0 -106zm18 91l19 0c12,0 20,-1 25,-4 4,-3 7,-7 7,-13 0,-4 -2,-9 -6,-12 -3,-4 -11,-6 -23,-6l-22 0 0 35z"/>
   <path class="fil3" d="M19335 11447l19 0 48 90 42 -90 19 0 -55 114c-7,14 -12,24 -17,28 -4,4 -10,7 -19,7 -5,0 -11,-2 -18,-4l0 -16c5,3 11,4 16,4 5,0 9,-1 13,-4 3,-3 7,-10 11,-21l-59 -108zm135 41l18 0 0 20c0,8 1,14 2,18 1,4 3,8 7,11 4,2 9,4 15,4 7,0 16,-2 27,-5l0 -48 18 0 0 106 -18 0 0 -43c-11,3 -22,5 -31,5 -8,0 -16,-2 -22,-6 -6,-4 -10,-9 -12,-15 -3,-6 -4,-13 -4,-20l0 -27zm186 71l18 3c-2,11 -8,19 -16,25 -8,6 -18,9 -30,9 -15,0 -28,-5 -37,-14 -9,-10 -13,-23 -13,-41 0,-17 4,-31 13,-41 10,-10 21,-15 36,-15 14,0 26,5 35,15 9,9 13,23 13,40 0,1 0,3 0,5l-79 0c1,12 4,21 10,27 6,6 13,9 22,9 7,0 12,-2 17,-5 4,-4 8,-9 11,-17zm-59 -29l59 0c-1,-8 -3,-15 -7,-20 -5,-7 -13,-10 -22,-10 -8,0 -15,3 -21,8 -5,6 -8,13 -9,22zm175 -86l16 0c-1,7 -2,12 -5,15 -2,3 -5,4 -9,5 -4,1 -11,1 -22,1 -15,0 -25,2 -31,5 -5,3 -9,7 -11,13 -3,7 -4,15 -4,25 4,-7 10,-12 16,-15 6,-4 13,-5 20,-5 14,0 26,4 35,14 9,9 13,22 13,39 0,12 -2,22 -7,30 -4,8 -10,14 -16,18 -6,5 -15,7 -26,7 -12,0 -22,-3 -29,-9 -7,-6 -12,-13 -16,-22 -4,-9 -6,-24 -6,-47 0,-28 5,-46 15,-56 9,-10 24,-15 43,-15 12,0 19,0 21,0 2,-1 3,-2 3,-3zm0 96c0,-11 -3,-20 -8,-27 -6,-7 -13,-11 -22,-11 -10,0 -18,4 -23,12 -6,7 -8,17 -8,29 0,13 3,22 9,29 5,6 13,9 22,9 8,0 16,-3 21,-11 6,-7 9,-17 9,-30zm40 -52l18 0 0 44 50 0 0 -44 18 0 0 106 -18 0 0 -47 -50 0 0 47 -18 0 0 -106zm182 92c-7,6 -13,10 -19,12 -6,3 -13,4 -20,4 -12,0 -21,-3 -27,-9 -6,-5 -9,-13 -9,-21 0,-6 1,-10 3,-15 3,-4 6,-7 9,-10 4,-2 9,-4 13,-6 4,-1 9,-2 16,-2 15,-2 26,-4 32,-7 1,-2 1,-4 1,-4 0,-8 -2,-13 -6,-16 -4,-4 -11,-6 -20,-6 -8,0 -15,2 -19,5 -4,3 -7,8 -9,15l-17 -2c1,-8 4,-14 8,-18 3,-5 9,-8 16,-11 6,-2 15,-4 24,-4 9,0 16,1 22,4 5,2 10,4 12,8 3,3 5,7 6,12 0,3 1,8 1,16l0 24c0,17 0,27 1,32 1,4 2,9 4,13l-18 0c-2,-4 -3,-9 -4,-14zm-1 -40c-7,3 -17,5 -30,7 -7,1 -12,2 -16,4 -3,1 -5,3 -7,6 -1,2 -2,5 -2,8 0,5 2,9 5,12 4,3 9,5 16,5 7,0 13,-2 19,-5 5,-3 9,-7 12,-12 2,-4 2,-10 2,-18l1 -7zm129 -52l0 106 -18 0 0 -42 -10 0c-7,0 -11,1 -14,3 -4,1 -8,7 -14,16l-16 23 -22 0 19 -29c6,-9 12,-13 18,-15 -10,-1 -18,-5 -23,-11 -5,-6 -7,-13 -7,-20 0,-10 3,-17 9,-23 7,-6 16,-8 29,-8l49 0zm-18 14l-26 0c-10,0 -17,2 -20,5 -3,4 -5,8 -5,12 0,7 2,11 7,14 4,3 13,5 24,5l20 0 0 -36zm-624 214l18 0 0 20c0,8 1,15 2,19 1,4 3,7 7,10 4,3 9,4 15,4 7,0 16,-2 27,-5l0 -48 18 0 0 106 -18 0 0 -43c-12,4 -22,5 -31,5 -9,0 -16,-2 -22,-6 -6,-4 -10,-9 -12,-15 -3,-6 -4,-12 -4,-19l0 -28zm183 93c-7,5 -13,9 -20,12 -6,2 -12,3 -19,3 -12,0 -21,-3 -27,-8 -7,-6 -10,-13 -10,-22 0,-5 2,-10 4,-14 2,-5 5,-8 9,-11 4,-2 8,-4 13,-6 4,0 9,-1 16,-2 15,-2 25,-4 32,-6 0,-3 0,-4 0,-5 0,-7 -1,-12 -5,-15 -4,-5 -11,-7 -20,-7 -9,0 -15,2 -19,5 -4,3 -7,8 -9,16l-18 -3c2,-7 5,-13 8,-18 4,-5 9,-8 16,-11 7,-2 15,-3 24,-3 9,0 17,1 23,3 5,2 9,5 12,8 3,3 5,7 6,12 0,3 1,9 1,17l0 23c0,17 0,28 1,32 0,5 2,9 4,13l-19 0c-2,-4 -3,-8 -3,-13zm-2 -40c-6,2 -16,5 -29,6 -8,2 -13,3 -16,4 -3,1 -5,3 -7,6 -2,2 -2,5 -2,8 0,5 1,9 5,12 4,3 9,5 16,5 7,0 13,-1 18,-5 6,-3 10,-7 12,-12 2,-4 3,-10 3,-18l0 -6zm115 14l18 2c-2,13 -7,22 -15,29 -8,7 -18,10 -29,10 -15,0 -26,-5 -35,-14 -9,-10 -13,-23 -13,-41 0,-11 2,-21 5,-30 4,-8 10,-15 18,-19 8,-4 16,-6 25,-6 12,0 21,2 28,8 8,6 12,14 14,25l-17 3c-2,-7 -5,-13 -9,-16 -4,-4 -9,-6 -15,-6 -9,0 -17,4 -22,10 -6,6 -9,17 -9,31 0,14 3,24 8,31 6,6 13,9 22,9 7,0 13,-2 17,-6 5,-4 8,-11 9,-20zm24 -67l86 0 0 15 -34 0 0 91 -18 0 0 -91 -34 0 0 -15zm102 0l18 0 0 41 23 0c15,0 26,3 34,9 8,6 12,14 12,24 0,9 -3,16 -10,22 -6,7 -17,10 -32,10l-45 0 0 -106zm18 91l19 0c12,0 20,-1 25,-4 5,-3 7,-7 7,-13 0,-5 -2,-9 -5,-12 -4,-4 -12,-6 -24,-6l-22 0 0 35z"/>
   <path class="fil3" d="M23725 11081l19 0 48 90 42 -90 19 0 -55 114c-7,14 -12,23 -17,28 -4,4 -10,6 -19,6 -4,0 -11,-1 -18,-3l0 -17c5,3 11,5 17,5 4,0 8,-2 12,-5 3,-3 7,-10 11,-21l-59 -107zm135 40l18 0 0 20c0,9 1,15 2,19 1,4 4,7 8,10 3,3 8,5 14,5 7,0 16,-2 27,-6l0 -48 18 0 0 106 -18 0 0 -43c-11,4 -22,6 -31,6 -8,0 -15,-2 -22,-6 -6,-5 -10,-10 -12,-16 -2,-5 -4,-12 -4,-19l0 -28zm114 0l18 0 0 81 50 -81 19 0 0 106 -18 0 0 -80 -50 80 -19 0 0 -106zm104 0l86 0 0 15 -34 0 0 91 -18 0 0 -91 -34 0 0 -15zm173 72l19 2c-3,11 -8,20 -16,26 -8,5 -18,8 -30,8 -16,0 -28,-4 -37,-14 -9,-9 -14,-23 -14,-40 0,-18 5,-32 14,-41 9,-10 21,-15 36,-15 14,0 25,5 34,14 9,10 14,24 14,41 0,1 0,3 0,5l-79 0c0,11 4,20 9,27 6,6 14,9 23,9 6,0 12,-2 16,-5 5,-4 9,-9 11,-17zm-58 -29l59 0c-1,-9 -3,-15 -7,-20 -6,-7 -13,-10 -22,-10 -9,0 -15,2 -21,8 -6,5 -9,13 -9,22zm102 -43l83 0 0 106 -18 0 0 -91 -47 0 0 53c0,12 -1,20 -1,24 -1,4 -3,8 -7,10 -4,3 -9,5 -16,5 -4,0 -9,0 -14,-1l0 -15 8 0c4,0 6,0 8,-1 1,-1 2,-2 3,-4 0,-1 1,-7 1,-16l0 -70zm110 0l18 0 0 42 23 0c14,0 26,3 34,8 8,6 12,14 12,24 0,9 -4,16 -10,23 -7,6 -18,9 -32,9l-45 0 0 -106zm18 92l19 0c11,0 19,-2 24,-5 5,-2 7,-7 7,-13 0,-4 -1,-8 -5,-12 -4,-4 -12,-5 -24,-5l-21 0 0 35zm158 -25l17 3c-1,12 -6,21 -14,28 -8,7 -18,10 -30,10 -14,0 -26,-4 -34,-14 -9,-9 -14,-23 -14,-40 0,-12 2,-22 6,-30 4,-9 10,-15 17,-20 8,-4 16,-6 26,-6 11,0 20,3 28,9 7,5 12,14 14,24l-18 3c-1,-7 -4,-12 -8,-16 -5,-4 -10,-5 -16,-5 -9,0 -16,3 -22,9 -5,7 -8,17 -8,31 0,14 2,25 8,31 5,7 12,10 21,10 7,0 13,-2 18,-7 5,-4 8,-11 9,-20zm33 -67l18 0 0 46c5,0 9,-1 12,-3 2,-3 5,-9 10,-19 3,-9 6,-14 8,-17 3,-3 5,-4 8,-5 3,-1 7,-2 14,-2l3 0 0 15 -5 0c-4,0 -7,1 -9,2 -1,1 -3,6 -6,13 -3,7 -5,12 -8,14 -2,3 -5,6 -10,8 8,2 15,9 23,21l19 33 -19 0 -20 -33c-4,-6 -7,-11 -10,-13 -3,-2 -6,-3 -10,-3l0 49 -18 0 0 -106zm163 93c-7,6 -13,10 -19,12 -6,2 -13,3 -20,3 -12,0 -21,-2 -27,-8 -6,-6 -9,-13 -9,-22 0,-5 1,-10 3,-14 2,-4 6,-8 9,-10 4,-3 9,-5 13,-6 4,-1 9,-2 16,-3 15,-2 26,-4 32,-6 0,-2 1,-4 1,-5 0,-7 -2,-12 -6,-15 -4,-4 -11,-6 -20,-6 -9,0 -15,1 -19,4 -4,3 -7,9 -9,16l-17 -2c1,-8 4,-14 8,-19 3,-4 9,-8 15,-10 7,-3 15,-4 25,-4 9,0 16,1 22,3 5,2 10,5 12,8 3,3 5,8 6,12 0,4 1,9 1,17l0 24c0,16 0,27 1,31 1,5 2,9 4,13l-19 0c-1,-4 -3,-8 -3,-13zm-1 -40c-7,3 -17,5 -30,7 -7,1 -13,2 -16,3 -3,2 -5,4 -7,6 -1,3 -2,6 -2,9 0,4 2,8 5,12 4,3 9,4 16,4 7,0 13,-1 19,-4 5,-3 9,-7 12,-12 1,-5 2,-10 2,-18l1 -7zm129 -53l0 106 -18 0 0 -41 -10 0c-7,0 -11,1 -15,2 -3,2 -7,7 -13,16l-16 23 -22 0 19 -28c6,-9 12,-14 18,-15 -10,-1 -18,-5 -23,-11 -5,-6 -7,-13 -7,-21 0,-9 3,-16 9,-22 7,-6 16,-9 29,-9l49 0zm-18 15l-26 0c-10,0 -17,2 -20,5 -3,3 -5,7 -5,12 0,6 2,11 7,14 4,3 12,4 24,4l20 0 0 -35z"/>
   <path class="fil3" d="M21923 11227l56 -76 -50 -70 23 0 27 37c6,8 9,14 12,18 3,-5 7,-10 11,-16l29 -39 22 0 -51 69 55 77 -24 0 -37 -52c-2,-3 -4,-6 -6,-9 -3,5 -6,9 -7,10l-37 51 -23 0zm139 -53c0,-19 6,-34 17,-43 9,-8 20,-12 33,-12 15,0 27,5 36,14 9,10 14,23 14,40 0,13 -2,24 -6,32 -5,8 -10,14 -18,18 -8,4 -17,6 -26,6 -15,0 -27,-4 -36,-14 -9,-9 -14,-23 -14,-41zm19 0c0,14 3,24 9,31 6,6 13,10 22,10 9,0 16,-4 22,-10 6,-7 9,-17 9,-31 0,-13 -3,-23 -9,-30 -6,-7 -13,-10 -22,-10 -9,0 -16,3 -22,10 -6,7 -9,17 -9,30zm106 -53l84 0 0 106 -18 0 0 -91 -48 0 0 53c0,12 0,20 -1,24 -1,4 -3,8 -7,10 -3,3 -8,5 -15,5 -4,0 -9,0 -15,-1l0 -15 8 0c4,0 6,0 8,-1 2,-1 3,-2 3,-4 1,-1 1,-7 1,-16l0 -70zm119 0l84 0 0 106 -18 0 0 -91 -48 0 0 53c0,12 0,20 -1,24 -1,4 -3,8 -6,10 -4,3 -9,5 -16,5 -4,0 -9,0 -15,-1l0 -15 8 0c4,0 7,0 8,-1 2,-1 3,-2 4,-4 0,-1 0,-7 0,-16l0 -70z"/>
   <path class="fil3" d="M21930 14705l20 0 0 64c8,0 15,-1 18,-5 4,-3 8,-11 14,-25 4,-9 7,-16 10,-20 3,-4 6,-7 11,-10 5,-3 11,-4 16,-4 8,0 12,0 12,0l0 17c0,0 -2,0 -4,0 -2,0 -3,0 -4,0 -6,0 -10,1 -13,4 -3,3 -7,10 -11,19 -5,13 -9,21 -12,24 -4,3 -8,6 -12,8 9,2 18,11 27,26l31 49 -24 0 -25 -40c-7,-11 -12,-19 -17,-23 -4,-4 -10,-6 -17,-6l0 69 -20 0 0 -147zm125 40l84 0 0 106 -18 0 0 -91 -48 0 0 53c0,12 0,21 -1,25 -1,3 -3,7 -6,10 -4,3 -9,4 -16,4 -4,0 -9,0 -14,-1l0 -15 7 0c4,0 7,0 8,-1 2,0 3,-2 4,-3 0,-2 0,-7 0,-17l0 -70zm180 93c-7,6 -13,10 -19,12 -6,3 -13,4 -20,4 -12,0 -21,-3 -27,-9 -6,-5 -9,-13 -9,-21 0,-6 1,-10 3,-15 3,-4 6,-7 10,-10 3,-3 8,-5 12,-6 4,-1 9,-2 16,-3 15,-1 26,-3 33,-6 0,-2 0,-4 0,-4 0,-8 -2,-13 -5,-16 -5,-4 -12,-6 -21,-6 -8,0 -15,2 -19,5 -4,3 -7,8 -9,15l-17 -2c1,-8 4,-14 8,-18 3,-5 9,-8 16,-11 7,-2 15,-4 24,-4 9,0 16,1 22,3 6,3 10,5 12,8 3,4 5,8 6,13 1,3 1,8 1,16l0 24c0,17 0,27 1,32 1,4 2,8 4,13l-18 0c-2,-4 -3,-9 -4,-14zm-1 -40c-7,3 -17,5 -30,7 -7,1 -12,2 -15,4 -4,1 -6,3 -8,6 -1,2 -2,5 -2,8 0,5 2,9 5,12 4,3 9,5 16,5 7,0 13,-2 19,-5 5,-3 9,-7 12,-12 2,-4 3,-10 3,-18l0 -7zm115 15l17 2c-2,12 -7,22 -14,29 -8,6 -18,10 -30,10 -14,0 -26,-5 -35,-14 -8,-10 -13,-23 -13,-41 0,-12 2,-21 6,-30 4,-9 9,-15 17,-19 8,-5 16,-7 25,-7 12,0 21,3 29,9 7,6 12,14 14,25l-18 2c-1,-7 -4,-12 -9,-16 -4,-3 -9,-5 -15,-5 -9,0 -16,3 -22,10 -6,6 -8,16 -8,30 0,15 2,25 8,31 5,7 12,10 21,10 7,0 13,-2 18,-6 4,-5 7,-11 9,-20zm102 0l17 2c-1,12 -6,22 -14,29 -8,6 -18,10 -30,10 -14,0 -26,-5 -34,-14 -9,-10 -14,-23 -14,-41 0,-12 2,-21 6,-30 4,-9 10,-15 17,-19 8,-5 16,-7 26,-7 11,0 20,3 28,9 7,6 12,14 14,25l-18 2c-1,-7 -4,-12 -8,-16 -5,-3 -10,-5 -16,-5 -9,0 -16,3 -22,10 -5,6 -8,16 -8,30 0,15 2,25 8,31 5,7 12,10 21,10 7,0 13,-2 18,-6 5,-5 8,-11 9,-20zm33 -68l18 0 0 45 50 0 0 -45 18 0 0 107 -18 0 0 -47 -50 0 0 47 -18 0 0 -107zm182 93c-7,6 -13,10 -19,12 -7,3 -13,4 -20,4 -12,0 -21,-3 -27,-9 -6,-5 -10,-13 -10,-21 0,-6 2,-10 4,-15 2,-4 5,-7 9,-10 4,-3 8,-5 13,-6 4,-1 9,-2 16,-3 15,-1 25,-3 32,-6 0,-2 0,-4 0,-4 0,-8 -1,-13 -5,-16 -4,-4 -11,-6 -20,-6 -9,0 -15,2 -19,5 -4,3 -7,8 -9,15l-17 -2c1,-8 4,-14 7,-18 4,-5 9,-8 16,-11 7,-2 15,-4 24,-4 10,0 17,1 23,3 5,3 9,5 12,8 3,4 5,8 6,13 0,3 1,8 1,16l0 24c0,17 0,27 1,32 0,4 2,8 4,13l-19 0c-1,-4 -3,-9 -3,-14zm-2 -40c-6,3 -16,5 -29,7 -7,1 -13,2 -16,4 -3,1 -5,3 -7,6 -1,2 -2,5 -2,8 0,5 1,9 5,12 4,3 9,5 16,5 7,0 13,-2 19,-5 5,-3 9,-7 11,-12 2,-4 3,-10 3,-18l0 -7zm130 -53l0 107 -18 0 0 -42 -11 0c-6,0 -11,1 -14,3 -3,1 -7,7 -13,15l-16 24 -22 0 19 -29c6,-9 12,-14 18,-15 -10,-1 -18,-5 -23,-11 -5,-6 -7,-13 -7,-20 0,-10 3,-17 9,-23 7,-6 16,-9 29,-9l49 0zm-18 15l-26 0c-10,0 -17,2 -20,5 -4,4 -5,8 -5,12 0,6 2,11 7,14 4,3 12,5 24,5l20 0 0 -36zm-788 214l18 0 0 46c5,0 9,-2 12,-4 2,-2 5,-8 10,-19 3,-8 6,-14 8,-16 3,-3 5,-5 8,-6 3,-1 8,-1 14,-1l3 0 0 15 -5 -1c-4,0 -7,1 -9,3 -1,1 -3,5 -6,13 -3,7 -5,11 -8,14 -2,3 -5,5 -10,7 8,2 15,10 23,22l20 33 -20 0 -20 -33c-4,-7 -7,-11 -10,-13 -3,-2 -6,-3 -10,-3l0 49 -18 0 0 -106zm85 53c0,-20 5,-34 16,-44 9,-8 20,-11 34,-11 14,0 26,4 35,14 10,9 14,22 14,39 0,14 -2,25 -6,32 -4,8 -10,14 -18,19 -8,4 -16,6 -25,6 -15,0 -27,-5 -36,-14 -10,-10 -14,-23 -14,-41zm18 0c0,13 3,24 9,30 6,7 14,10 23,10 8,0 16,-3 22,-10 6,-7 9,-17 9,-31 0,-13 -3,-23 -9,-29 -6,-7 -14,-11 -22,-11 -9,0 -17,4 -23,10 -6,7 -9,17 -9,31zm103 -53l27 0 29 85 31 -85 25 0 0 106 -18 0 0 -86 -31 86 -16 0 -30 -90 0 90 -17 0 0 -106zm140 0l18 0 0 44 50 0 0 -44 17 0 0 106 -17 0 0 -47 -50 0 0 47 -18 0 0 -106zm182 93c-7,5 -13,9 -20,12 -6,2 -12,3 -19,3 -12,0 -21,-3 -27,-8 -7,-6 -10,-13 -10,-22 0,-5 2,-10 4,-14 2,-5 5,-8 9,-11 4,-2 8,-4 13,-6 4,0 9,-1 16,-2 15,-2 25,-4 32,-6 0,-3 0,-4 0,-5 0,-7 -1,-13 -5,-16 -4,-4 -11,-6 -20,-6 -9,0 -15,2 -19,5 -4,3 -7,8 -9,16l-18 -3c2,-7 5,-13 8,-18 4,-5 9,-8 16,-11 7,-2 15,-3 24,-3 9,0 17,1 23,3 5,2 9,5 12,8 3,3 5,7 6,12 0,3 1,9 1,17l0 23c0,17 0,28 1,32 0,4 2,9 4,13l-19 0c-2,-4 -3,-8 -3,-13zm-2 -40c-6,2 -16,5 -29,6 -8,1 -13,3 -16,4 -3,1 -5,3 -7,6 -2,2 -2,5 -2,8 0,5 1,9 5,12 4,3 9,5 16,5 7,0 13,-2 18,-5 6,-3 10,-7 12,-12 2,-4 3,-10 3,-18l0 -6zm32 -53l86 0 0 15 -34 0 0 91 -18 0 0 -91 -34 0 0 -15zm170 93c-6,5 -13,9 -19,12 -6,2 -13,3 -20,3 -12,0 -21,-3 -27,-8 -6,-6 -9,-13 -9,-22 0,-5 1,-10 3,-14 3,-5 6,-8 10,-11 3,-2 8,-4 13,-6 3,0 8,-1 16,-2 14,-2 25,-4 32,-6 0,-3 0,-4 0,-5 0,-7 -2,-13 -5,-16 -5,-4 -12,-6 -21,-6 -8,0 -15,2 -19,5 -4,3 -7,8 -9,16l-17 -3c1,-7 4,-13 8,-18 3,-5 9,-8 16,-11 7,-2 15,-3 24,-3 9,0 16,1 22,3 6,2 10,5 12,8 3,3 5,7 6,12 1,3 1,9 1,17l0 23c0,17 0,28 1,32 1,4 2,9 4,13l-18 0c-2,-4 -3,-8 -4,-13zm-1 -40c-7,2 -17,5 -30,6 -7,1 -12,3 -15,4 -3,1 -6,3 -7,6 -2,2 -3,5 -3,8 0,5 2,9 5,12 4,3 9,5 16,5 7,0 13,-2 19,-5 5,-3 9,-7 12,-12 2,-4 3,-10 3,-18l0 -6zm-335 281l-18 0 0 -114c-4,4 -10,8 -17,12 -7,4 -13,7 -19,9l0 -17c10,-5 19,-11 26,-17 8,-7 13,-14 16,-20l12 0 0 147z"/>
   <path class="fil3" d="M23946 14705l20 0 0 64c8,0 15,-1 18,-5 4,-3 8,-11 14,-25 4,-9 7,-16 10,-20 3,-4 6,-7 11,-10 5,-3 10,-4 16,-4 8,0 12,0 12,0l0 17c-1,0 -2,0 -4,0 -2,0 -3,0 -4,0 -6,0 -11,1 -14,4 -3,3 -6,10 -10,19 -5,13 -9,21 -12,24 -4,3 -8,6 -13,8 10,2 19,11 28,26l30 49 -24 0 -24 -40c-7,-11 -12,-19 -17,-23 -4,-4 -10,-6 -17,-6l0 69 -20 0 0 -147zm125 40l84 0 0 106 -18 0 0 -91 -48 0 0 53c0,12 0,21 -1,25 -1,3 -3,7 -7,10 -3,3 -8,4 -15,4 -4,0 -9,0 -15,-1l0 -15 8 0c4,0 7,0 8,-1 2,0 3,-2 3,-3 1,-2 1,-7 1,-17l0 -70zm180 93c-7,6 -13,10 -19,12 -6,3 -13,4 -20,4 -12,0 -21,-3 -27,-9 -6,-5 -9,-13 -9,-21 0,-6 1,-10 3,-15 2,-4 6,-7 9,-10 4,-3 9,-5 13,-6 4,-1 9,-2 16,-3 15,-1 26,-3 32,-6 0,-2 1,-4 1,-4 0,-8 -2,-13 -6,-16 -4,-4 -11,-6 -20,-6 -9,0 -15,2 -19,5 -4,3 -7,8 -9,15l-17 -2c1,-8 4,-14 8,-18 3,-5 9,-8 15,-11 7,-2 15,-4 25,-4 9,0 16,1 22,3 5,3 10,5 12,8 3,4 5,8 6,13 0,3 1,8 1,16l0 24c0,17 0,27 1,32 1,4 2,8 4,13l-19 0c-1,-4 -3,-9 -3,-14zm-1 -40c-7,3 -17,5 -30,7 -7,1 -13,2 -16,4 -3,1 -5,3 -7,6 -1,2 -2,5 -2,8 0,5 2,9 5,12 4,3 9,5 16,5 7,0 13,-2 19,-5 5,-3 9,-7 12,-12 1,-4 2,-10 2,-18l1 -7zm115 15l17 2c-2,12 -7,22 -15,29 -8,6 -17,10 -29,10 -14,0 -26,-5 -35,-14 -9,-10 -13,-23 -13,-41 0,-12 2,-21 6,-30 3,-9 9,-15 17,-19 8,-5 16,-7 25,-7 12,0 21,3 28,9 8,6 12,14 15,25l-18 2c-2,-7 -4,-12 -9,-16 -4,-3 -9,-5 -15,-5 -9,0 -16,3 -22,10 -6,6 -9,16 -9,30 0,15 3,25 9,31 5,7 12,10 21,10 7,0 13,-2 18,-6 4,-5 7,-11 9,-20zm102 0l17 2c-2,12 -7,22 -14,29 -8,6 -18,10 -30,10 -14,0 -26,-5 -35,-14 -8,-10 -13,-23 -13,-41 0,-12 2,-21 6,-30 4,-9 9,-15 17,-19 8,-5 16,-7 25,-7 12,0 21,3 29,9 7,6 12,14 14,25l-18 2c-1,-7 -4,-12 -9,-16 -4,-3 -9,-5 -15,-5 -9,0 -16,3 -22,10 -6,6 -8,16 -8,30 0,15 2,25 8,31 5,7 12,10 21,10 7,0 13,-2 18,-6 4,-5 7,-11 9,-20zm33 -68l18 0 0 45 49 0 0 -45 18 0 0 107 -18 0 0 -47 -49 0 0 47 -18 0 0 -107zm182 93c-7,6 -13,10 -20,12 -6,3 -12,4 -19,4 -12,0 -21,-3 -27,-9 -7,-5 -10,-13 -10,-21 0,-6 2,-10 4,-15 2,-4 5,-7 9,-10 4,-3 8,-5 13,-6 4,-1 9,-2 16,-3 15,-1 25,-3 32,-6 0,-2 0,-4 0,-4 0,-8 -1,-13 -5,-16 -4,-4 -11,-6 -20,-6 -9,0 -15,2 -19,5 -4,3 -7,8 -9,15l-18 -2c2,-8 5,-14 8,-18 4,-5 9,-8 16,-11 7,-2 15,-4 24,-4 9,0 17,1 22,3 6,3 10,5 13,8 3,4 4,8 6,13 0,3 0,8 0,16l0 24c0,17 1,27 2,32 0,4 2,8 4,13l-19 0c-2,-4 -3,-9 -3,-14zm-2 -40c-6,3 -16,5 -29,7 -8,1 -13,2 -16,4 -3,1 -5,3 -7,6 -2,2 -2,5 -2,8 0,5 1,9 5,12 4,3 9,5 16,5 7,0 13,-2 18,-5 6,-3 10,-7 12,-12 2,-4 3,-10 3,-18l0 -7zm130 -53l0 107 -18 0 0 -42 -11 0c-6,0 -11,1 -14,3 -3,1 -7,7 -13,15l-16 24 -22 0 19 -29c6,-9 12,-14 18,-15 -11,-1 -18,-5 -23,-11 -5,-6 -8,-13 -8,-20 0,-10 4,-17 10,-23 7,-6 16,-9 28,-9l50 0zm-18 15l-26 0c-11,0 -17,2 -21,5 -3,4 -4,8 -4,12 0,6 2,11 7,14 4,3 12,5 24,5l20 0 0 -36zm-788 214l18 0 0 46c5,0 9,-2 12,-4 2,-2 5,-8 10,-19 3,-8 6,-14 8,-16 3,-3 5,-5 8,-6 3,-1 7,-1 14,-1l3 0 0 15 -5 -1c-4,0 -7,1 -9,3 -1,1 -3,5 -6,13 -3,7 -5,11 -8,14 -2,3 -5,5 -10,7 8,2 15,10 23,22l19 33 -19 0 -20 -33c-4,-7 -7,-11 -10,-13 -3,-2 -6,-3 -10,-3l0 49 -18 0 0 -106zm85 53c0,-20 5,-34 16,-44 9,-8 20,-11 33,-11 15,0 27,4 36,14 9,9 14,22 14,39 0,14 -2,25 -6,32 -4,8 -10,14 -18,19 -8,4 -16,6 -26,6 -14,0 -26,-5 -36,-14 -9,-10 -13,-23 -13,-41zm18 0c0,13 3,24 9,30 6,7 13,10 22,10 9,0 17,-3 23,-10 6,-7 9,-17 9,-31 0,-13 -3,-23 -9,-29 -6,-7 -14,-11 -23,-11 -9,0 -16,4 -22,10 -6,7 -9,17 -9,31zm103 -53l27 0 28 85 31 -85 26 0 0 106 -18 0 0 -86 -31 86 -16 0 -30 -90 0 90 -17 0 0 -106zm140 0l18 0 0 44 49 0 0 -44 18 0 0 106 -18 0 0 -47 -49 0 0 47 -18 0 0 -106zm182 93c-7,5 -14,9 -20,12 -6,2 -12,3 -20,3 -11,0 -20,-3 -26,-8 -7,-6 -10,-13 -10,-22 0,-5 1,-10 4,-14 2,-5 5,-8 9,-11 4,-2 8,-4 13,-6 4,0 9,-1 16,-2 15,-2 25,-4 32,-6 0,-3 0,-4 0,-5 0,-7 -2,-13 -5,-16 -5,-4 -11,-6 -20,-6 -9,0 -15,2 -19,5 -4,3 -7,8 -9,16l-18 -3c2,-7 5,-13 8,-18 4,-5 9,-8 16,-11 7,-2 15,-3 24,-3 9,0 17,1 22,3 6,2 10,5 13,8 3,3 4,7 5,12 1,3 1,9 1,17l0 23c0,17 1,28 1,32 1,4 3,9 5,13l-19 0c-2,-4 -3,-8 -3,-13zm-2 -40c-6,2 -16,5 -29,6 -8,1 -13,3 -16,4 -3,1 -5,3 -7,6 -2,2 -3,5 -3,8 0,5 2,9 6,12 4,3 9,5 16,5 7,0 13,-2 18,-5 6,-3 10,-7 12,-12 2,-4 3,-10 3,-18l0 -6zm32 -53l86 0 0 15 -34 0 0 91 -18 0 0 -91 -34 0 0 -15zm170 93c-7,5 -13,9 -19,12 -6,2 -13,3 -20,3 -12,0 -21,-3 -27,-8 -6,-6 -9,-13 -9,-22 0,-5 1,-10 3,-14 3,-5 6,-8 9,-11 4,-2 9,-4 13,-6 4,0 9,-1 16,-2 15,-2 26,-4 33,-6 0,-3 0,-4 0,-5 0,-7 -2,-13 -6,-16 -4,-4 -11,-6 -20,-6 -8,0 -15,2 -19,5 -4,3 -7,8 -9,16l-17 -3c1,-7 4,-13 8,-18 3,-5 9,-8 16,-11 6,-2 15,-3 24,-3 9,0 16,1 22,3 5,2 10,5 12,8 3,3 5,7 6,12 0,3 1,9 1,17l0 23c0,17 0,28 1,32 1,4 2,9 4,13l-18 0c-2,-4 -3,-8 -4,-13zm-1 -40c-7,2 -17,5 -30,6 -7,1 -12,3 -16,4 -3,1 -5,3 -7,6 -1,2 -2,5 -2,8 0,5 2,9 5,12 4,3 9,5 16,5 7,0 13,-2 19,-5 5,-3 9,-7 12,-12 2,-4 3,-10 3,-18l0 -6zm-308 264l0 17 -97 0c0,-4 0,-8 2,-12 2,-7 6,-14 12,-20 5,-6 13,-14 23,-22 16,-13 27,-23 32,-31 6,-8 9,-15 9,-22 0,-7 -3,-13 -8,-18 -5,-4 -11,-7 -20,-7 -8,0 -15,3 -21,8 -5,5 -7,12 -7,21l-19 -2c1,-13 6,-24 14,-31 9,-7 20,-11 34,-11 14,0 25,4 33,12 8,8 12,17 12,29 0,6 -1,11 -3,17 -3,6 -7,12 -12,18 -6,6 -15,15 -28,26 -11,9 -18,15 -21,18 -3,3 -5,7 -7,10l72 0z"/>
   <path class="fil3" d="M26178 14705l20 0 0 64c8,0 15,-1 18,-5 4,-3 8,-11 14,-25 4,-9 7,-16 10,-20 3,-4 6,-7 11,-10 5,-3 10,-4 16,-4 8,0 12,0 12,0l0 17c-1,0 -2,0 -4,0 -2,0 -3,0 -4,0 -6,0 -10,1 -13,4 -4,3 -7,10 -11,19 -5,13 -9,21 -12,24 -4,3 -8,6 -13,8 10,2 19,11 28,26l30 49 -24 0 -24 -40c-7,-11 -12,-19 -17,-23 -4,-4 -10,-6 -17,-6l0 69 -20 0 0 -147zm125 40l84 0 0 106 -18 0 0 -91 -48 0 0 53c0,12 0,21 -1,25 -1,3 -3,7 -7,10 -3,3 -8,4 -15,4 -4,0 -9,0 -15,-1l0 -15 8 0c4,0 7,0 8,-1 2,0 3,-2 3,-3 1,-2 1,-7 1,-17l0 -70zm180 93c-7,6 -13,10 -19,12 -6,3 -13,4 -20,4 -12,0 -21,-3 -27,-9 -6,-5 -9,-13 -9,-21 0,-6 1,-10 3,-15 3,-4 6,-7 9,-10 4,-3 9,-5 13,-6 4,-1 9,-2 16,-3 15,-1 26,-3 32,-6 1,-2 1,-4 1,-4 0,-8 -2,-13 -6,-16 -4,-4 -11,-6 -20,-6 -9,0 -15,2 -19,5 -4,3 -7,8 -9,15l-17 -2c1,-8 4,-14 8,-18 3,-5 9,-8 15,-11 7,-2 15,-4 25,-4 9,0 16,1 22,3 5,3 10,5 12,8 3,4 5,8 6,13 0,3 1,8 1,16l0 24c0,17 0,27 1,32 1,4 2,8 4,13l-19 0c-1,-4 -3,-9 -3,-14zm-1 -40c-7,3 -17,5 -30,7 -7,1 -13,2 -16,4 -3,1 -5,3 -7,6 -1,2 -2,5 -2,8 0,5 2,9 5,12 4,3 9,5 16,5 7,0 13,-2 19,-5 5,-3 9,-7 12,-12 1,-4 2,-10 2,-18l1 -7zm115 15l17 2c-2,12 -7,22 -15,29 -8,6 -17,10 -29,10 -14,0 -26,-5 -35,-14 -9,-10 -13,-23 -13,-41 0,-12 2,-21 6,-30 3,-9 9,-15 17,-19 8,-5 16,-7 25,-7 12,0 21,3 28,9 8,6 12,14 15,25l-18 2c-1,-7 -4,-12 -9,-16 -4,-3 -9,-5 -15,-5 -9,0 -16,3 -22,10 -6,6 -9,16 -9,30 0,15 3,25 9,31 5,7 12,10 21,10 7,0 13,-2 18,-6 4,-5 7,-11 9,-20zm102 0l17 2c-2,12 -7,22 -14,29 -8,6 -18,10 -30,10 -14,0 -26,-5 -35,-14 -8,-10 -13,-23 -13,-41 0,-12 2,-21 6,-30 4,-9 9,-15 17,-19 8,-5 16,-7 25,-7 12,0 21,3 29,9 7,6 12,14 14,25l-18 2c-1,-7 -4,-12 -9,-16 -4,-3 -9,-5 -15,-5 -9,0 -16,3 -22,10 -6,6 -8,16 -8,30 0,15 2,25 8,31 5,7 12,10 21,10 7,0 13,-2 18,-6 5,-5 8,-11 9,-20zm33 -68l18 0 0 45 49 0 0 -45 18 0 0 107 -18 0 0 -47 -49 0 0 47 -18 0 0 -107zm182 93c-7,6 -13,10 -20,12 -6,3 -12,4 -19,4 -12,0 -21,-3 -27,-9 -7,-5 -10,-13 -10,-21 0,-6 2,-10 4,-15 2,-4 5,-7 9,-10 4,-3 8,-5 13,-6 4,-1 9,-2 16,-3 15,-1 25,-3 32,-6 0,-2 0,-4 0,-4 0,-8 -1,-13 -5,-16 -4,-4 -11,-6 -20,-6 -9,0 -15,2 -19,5 -4,3 -7,8 -9,15l-18 -2c2,-8 5,-14 8,-18 4,-5 9,-8 16,-11 7,-2 15,-4 24,-4 9,0 17,1 22,3 6,3 10,5 13,8 3,4 5,8 6,13 0,3 0,8 0,16l0 24c0,17 1,27 2,32 0,4 2,8 4,13l-19 0c-2,-4 -3,-9 -3,-14zm-2 -40c-6,3 -16,5 -29,7 -8,1 -13,2 -16,4 -3,1 -5,3 -7,6 -2,2 -2,5 -2,8 0,5 1,9 5,12 4,3 9,5 16,5 7,0 13,-2 18,-5 6,-3 10,-7 12,-12 2,-4 3,-10 3,-18l0 -7zm130 -53l0 107 -18 0 0 -42 -11 0c-6,0 -11,1 -14,3 -3,1 -7,7 -13,15l-16 24 -22 0 19 -29c6,-9 12,-14 18,-15 -11,-1 -18,-5 -23,-11 -5,-6 -8,-13 -8,-20 0,-10 4,-17 10,-23 7,-6 16,-9 28,-9l50 0zm-18 15l-26 0c-11,0 -17,2 -21,5 -3,4 -4,8 -4,12 0,6 2,11 7,14 4,3 12,5 24,5l20 0 0 -36zm-788 214l18 0 0 46c5,0 9,-2 12,-4 2,-2 5,-8 10,-19 3,-8 6,-14 8,-16 3,-3 5,-5 8,-6 3,-1 7,-1 14,-1l3 0 0 15 -5 -1c-4,0 -7,1 -9,3 -1,1 -3,5 -6,13 -3,7 -5,11 -8,14 -2,3 -5,5 -10,7 8,2 15,10 23,22l19 33 -19 0 -20 -33c-4,-7 -7,-11 -10,-13 -3,-2 -6,-3 -10,-3l0 49 -18 0 0 -106zm85 53c0,-20 5,-34 16,-44 9,-8 20,-11 33,-11 15,0 27,4 36,14 9,9 14,22 14,39 0,14 -2,25 -6,32 -4,8 -10,14 -18,19 -8,4 -16,6 -26,6 -14,0 -26,-5 -36,-14 -9,-10 -13,-23 -13,-41zm18 0c0,13 3,24 9,30 6,7 13,10 22,10 9,0 17,-3 23,-10 6,-7 9,-17 9,-31 0,-13 -3,-23 -9,-29 -6,-7 -14,-11 -23,-11 -9,0 -16,4 -22,10 -6,7 -9,17 -9,31zm103 -53l27 0 28 85 31 -85 26 0 0 106 -18 0 0 -86 -31 86 -16 0 -30 -90 0 90 -17 0 0 -106zm140 0l18 0 0 44 49 0 0 -44 18 0 0 106 -18 0 0 -47 -49 0 0 47 -18 0 0 -106zm182 93c-7,5 -13,9 -20,12 -6,2 -12,3 -19,3 -12,0 -21,-3 -27,-8 -7,-6 -10,-13 -10,-22 0,-5 1,-10 4,-14 2,-5 5,-8 9,-11 4,-2 8,-4 13,-6 4,0 9,-1 16,-2 15,-2 25,-4 32,-6 0,-3 0,-4 0,-5 0,-7 -2,-13 -5,-16 -5,-4 -11,-6 -20,-6 -9,0 -15,2 -19,5 -4,3 -7,8 -9,16l-18 -3c2,-7 5,-13 8,-18 4,-5 9,-8 16,-11 7,-2 15,-3 24,-3 9,0 17,1 22,3 6,2 10,5 13,8 3,3 4,7 5,12 1,3 1,9 1,17l0 23c0,17 1,28 2,32 0,4 2,9 4,13l-19 0c-2,-4 -3,-8 -3,-13zm-2 -40c-6,2 -16,5 -29,6 -8,1 -13,3 -16,4 -3,1 -5,3 -7,6 -2,2 -3,5 -3,8 0,5 2,9 6,12 4,3 9,5 16,5 7,0 13,-2 18,-5 6,-3 10,-7 12,-12 2,-4 3,-10 3,-18l0 -6zm32 -53l86 0 0 15 -34 0 0 91 -18 0 0 -91 -34 0 0 -15zm170 93c-7,5 -13,9 -19,12 -6,2 -13,3 -20,3 -12,0 -21,-3 -27,-8 -6,-6 -9,-13 -9,-22 0,-5 1,-10 3,-14 3,-5 6,-8 10,-11 3,-2 8,-4 12,-6 4,0 9,-1 16,-2 15,-2 26,-4 33,-6 0,-3 0,-4 0,-5 0,-7 -2,-13 -5,-16 -5,-4 -12,-6 -21,-6 -8,0 -15,2 -19,5 -4,3 -7,8 -9,16l-17 -3c1,-7 4,-13 8,-18 3,-5 9,-8 16,-11 6,-2 15,-3 24,-3 9,0 16,1 22,3 5,2 10,5 12,8 3,3 5,7 6,12 1,3 1,9 1,17l0 23c0,17 0,28 1,32 1,4 2,9 4,13l-18 0c-2,-4 -3,-8 -4,-13zm-1 -40c-7,2 -17,5 -30,6 -7,1 -12,3 -16,4 -3,1 -5,3 -7,6 -1,2 -2,5 -2,8 0,5 2,9 5,12 4,3 9,5 16,5 7,0 13,-2 19,-5 5,-3 9,-7 12,-12 2,-4 3,-10 3,-18l0 -6zm-403 242l18 -2c2,10 6,17 11,22 5,4 11,7 18,7 9,0 16,-3 22,-9 5,-6 8,-13 8,-22 0,-8 -2,-15 -8,-20 -5,-6 -12,-8 -20,-8 -4,0 -8,0 -13,2l2 -16c1,0 2,0 3,0 7,0 14,-2 20,-6 7,-4 10,-10 10,-18 0,-7 -3,-12 -7,-17 -4,-4 -10,-6 -17,-6 -7,0 -13,2 -18,6 -4,5 -7,12 -9,20l-18 -3c2,-12 7,-21 15,-28 8,-7 18,-10 29,-10 8,0 16,2 22,5 7,4 12,8 16,14 3,6 5,12 5,19 0,6 -2,12 -5,17 -3,5 -8,10 -15,13 9,2 15,6 20,12 5,6 7,14 7,24 0,12 -4,23 -14,32 -9,9 -21,13 -35,13 -13,0 -24,-3 -32,-11 -9,-8 -13,-18 -15,-30z"/>
   <path class="fil3" d="M20479 11692l56 -146 21 0 60 146 -22 0 -17 -44 -62 0 -15 44 -21 0zm42 -60l50 0 -15 -41c-5,-12 -8,-22 -11,-30 -2,9 -4,19 -8,28l-16 43zm122 -46l74 0 0 91 12 0 0 45 -15 0 0 -30 -84 0 0 30 -14 0 0 -45 9 0c13,-17 19,-47 18,-91zm15 15c-1,34 -6,60 -16,76l57 0 0 -76 -41 0zm91 -15l28 0 28 85 31 -85 25 0 0 106 -18 0 0 -85 -31 85 -16 0 -29 -89 0 89 -18 0 0 -106zm145 106l0 -20 20 0 0 20 -20 0z"/>
   <path class="fil3" d="M15696 14725l115 0 0 146 -19 0 0 -129 -76 0 0 129 -20 0 0 -146zm214 133c-7,5 -13,9 -19,12 -6,2 -13,3 -20,3 -12,0 -21,-3 -27,-8 -6,-6 -9,-13 -9,-22 0,-5 1,-10 3,-14 3,-5 6,-8 10,-11 3,-2 8,-4 12,-5 4,-1 9,-2 16,-3 15,-2 26,-4 33,-6 0,-3 0,-4 0,-5 0,-7 -2,-12 -5,-15 -5,-4 -12,-6 -21,-6 -8,0 -15,1 -19,4 -4,3 -7,8 -9,16l-17 -3c1,-7 4,-13 8,-18 3,-5 9,-8 16,-11 7,-2 15,-3 24,-3 9,0 16,1 22,3 5,2 10,5 12,8 3,3 5,7 6,12 1,3 1,9 1,17l0 23c0,17 0,28 1,32 1,5 2,9 4,13l-18 0c-2,-4 -3,-8 -4,-13zm-1 -40c-7,2 -17,5 -30,7 -7,1 -12,2 -16,3 -3,1 -5,3 -7,6 -1,2 -2,5 -2,8 0,5 2,9 5,12 4,3 9,5 16,5 7,0 13,-1 19,-4 5,-3 9,-8 12,-13 2,-4 3,-10 3,-18l0 -6zm54 -53l84 0 0 106 -18 0 0 -91 -48 0 0 53c0,12 0,20 -1,24 -1,4 -3,7 -7,10 -3,3 -8,5 -15,5 -4,0 -9,-1 -15,-1l0 -15 8 0c4,0 7,-1 8,-1 2,-1 3,-2 3,-4 1,-2 1,-7 1,-16l0 -70zm180 93c-7,5 -13,9 -19,12 -7,2 -13,3 -20,3 -12,0 -21,-3 -27,-8 -6,-6 -9,-13 -9,-22 0,-5 1,-10 3,-14 2,-5 6,-8 9,-11 4,-2 9,-4 13,-5 4,-1 9,-2 16,-3 15,-2 26,-4 32,-6 0,-3 1,-4 1,-5 0,-7 -2,-12 -6,-15 -4,-4 -11,-6 -20,-6 -9,0 -15,1 -19,4 -4,3 -7,8 -9,16l-17 -3c1,-7 4,-13 8,-18 3,-5 8,-8 15,-11 7,-2 15,-3 25,-3 9,0 16,1 22,3 5,2 10,5 12,8 3,3 5,7 6,12 0,3 1,9 1,17l0 23c0,17 0,28 1,32 1,5 2,9 4,13l-19 0c-1,-4 -3,-8 -3,-13zm-1 -40c-7,2 -17,5 -30,7 -7,1 -13,2 -16,3 -3,1 -5,3 -7,6 -1,2 -2,5 -2,8 0,5 2,9 5,12 4,3 9,5 16,5 7,0 13,-1 19,-4 5,-3 9,-8 12,-13 1,-4 2,-10 2,-18l1 -6zm31 -53l86 0 0 15 -34 0 0 91 -18 0 0 -91 -34 0 0 -15zm170 93c-6,5 -13,9 -19,12 -6,2 -13,3 -20,3 -11,0 -20,-3 -27,-8 -6,-6 -9,-13 -9,-22 0,-5 1,-10 4,-14 2,-5 5,-8 9,-11 4,-2 8,-4 13,-5 3,-1 9,-2 16,-3 14,-2 25,-4 32,-6 0,-3 0,-4 0,-5 0,-7 -2,-12 -5,-15 -5,-4 -12,-6 -21,-6 -8,0 -14,1 -18,4 -4,3 -7,8 -9,16l-18 -3c2,-7 4,-13 8,-18 4,-5 9,-8 16,-11 7,-2 15,-3 24,-3 9,0 16,1 22,3 6,2 10,5 13,8 2,3 4,7 5,12 1,3 1,9 1,17l0 23c0,17 0,28 1,32 1,5 2,9 5,13l-19 0c-2,-4 -3,-8 -4,-13zm-1 -40c-7,2 -16,5 -29,7 -8,1 -13,2 -16,3 -3,1 -6,3 -7,6 -2,2 -3,5 -3,8 0,5 2,9 6,12 3,3 9,5 16,5 6,0 13,-1 18,-4 5,-3 9,-8 12,-13 2,-4 3,-10 3,-18l0 -6zm-363 243l19 -2c1,9 5,16 10,21 5,5 11,7 18,7 9,0 16,-3 22,-10 6,-6 9,-15 9,-26 0,-10 -3,-18 -9,-24 -5,-6 -13,-9 -22,-9 -6,0 -11,1 -16,4 -4,3 -8,6 -11,10l-17 -2 14 -75 73 0 0 17 -58 0 -8 39c9,-6 18,-9 28,-9 12,0 23,5 32,13 9,9 13,21 13,35 0,13 -4,24 -12,34 -9,12 -22,18 -38,18 -13,0 -24,-4 -32,-12 -9,-7 -14,-17 -15,-29z"/>
   <path class="fil3" d="M16731 15137l115 0 0 146 -20 0 0 -129 -76 0 0 129 -19 0 0 -146zm213 133c-6,6 -13,10 -19,12 -6,2 -13,4 -20,4 -11,0 -20,-3 -27,-9 -6,-6 -9,-13 -9,-22 0,-5 1,-10 4,-14 2,-4 5,-8 9,-10 4,-3 8,-5 13,-6 3,-1 9,-2 16,-3 14,-1 25,-4 32,-6 0,-2 0,-4 0,-5 0,-7 -2,-12 -5,-15 -5,-4 -12,-6 -21,-6 -8,0 -14,1 -18,4 -4,3 -7,9 -9,16l-18 -2c2,-8 4,-14 8,-19 4,-4 9,-8 16,-10 7,-3 15,-4 24,-4 9,0 16,1 22,3 6,2 10,5 13,8 2,3 4,8 5,12 1,4 1,9 1,17l0 24c0,16 1,27 1,31 1,5 3,9 5,13l-19 0c-2,-4 -3,-8 -4,-13zm-1 -40c-7,3 -16,5 -29,7 -8,1 -13,2 -16,3 -3,2 -6,4 -7,6 -2,3 -3,6 -3,9 0,5 2,8 6,12 3,3 9,4 16,4 7,0 13,-1 18,-4 5,-3 9,-7 12,-12 2,-4 3,-10 3,-18l0 -7zm55 -53l83 0 0 106 -18 0 0 -91 -47 0 0 53c0,12 -1,20 -2,24 0,4 -3,8 -6,10 -4,3 -9,5 -16,5 -4,0 -9,0 -14,-1l0 -15 8 0c3,0 6,0 8,-1 1,-1 2,-2 3,-4 0,-1 1,-7 1,-16l0 -70zm179 93c-6,6 -13,10 -19,12 -6,2 -13,4 -20,4 -11,0 -20,-3 -27,-9 -6,-6 -9,-13 -9,-22 0,-5 1,-10 3,-14 3,-4 6,-8 10,-10 4,-3 8,-5 13,-6 3,-1 9,-2 16,-3 14,-1 25,-4 32,-6 0,-2 0,-4 0,-5 0,-7 -2,-12 -5,-15 -5,-4 -12,-6 -21,-6 -8,0 -15,1 -19,4 -4,3 -7,9 -8,16l-18 -2c2,-8 4,-14 8,-19 4,-4 9,-8 16,-10 7,-3 15,-4 24,-4 9,0 16,1 22,3 6,2 10,5 13,8 2,3 4,8 5,12 1,4 1,9 1,17l0 24c0,16 0,27 1,31 1,5 2,9 5,13l-19 0c-2,-4 -3,-8 -4,-13zm-1 -40c-7,3 -17,5 -30,7 -7,1 -12,2 -15,3 -3,2 -6,4 -7,6 -2,3 -3,6 -3,9 0,5 2,8 6,12 3,3 8,4 15,4 7,0 14,-1 19,-4 5,-3 9,-7 12,-12 2,-4 3,-10 3,-18l0 -7zm32 -53l86 0 0 15 -34 0 0 91 -18 0 0 -91 -34 0 0 -15zm170 93c-7,6 -13,10 -20,12 -6,2 -12,4 -19,4 -12,0 -21,-3 -27,-9 -7,-6 -10,-13 -10,-22 0,-5 2,-10 4,-14 2,-4 5,-8 9,-10 4,-3 8,-5 13,-6 4,-1 9,-2 16,-3 15,-1 25,-4 32,-6 0,-2 0,-4 0,-5 0,-7 -1,-12 -5,-15 -4,-4 -11,-6 -20,-6 -9,0 -15,1 -19,4 -4,3 -7,9 -9,16l-18 -2c2,-8 5,-14 8,-19 4,-4 9,-8 16,-10 7,-3 15,-4 24,-4 9,0 17,1 22,3 6,2 10,5 13,8 3,3 4,8 6,12 0,4 0,9 0,17l0 24c0,16 1,27 2,31 0,5 2,9 4,13l-19 0c-2,-4 -3,-8 -3,-13zm-2 -40c-6,3 -16,5 -29,7 -8,1 -13,2 -16,3 -3,2 -5,4 -7,6 -2,3 -2,6 -2,9 0,5 1,8 5,12 4,3 9,4 16,4 7,0 13,-1 18,-4 6,-3 10,-7 12,-12 2,-4 3,-10 3,-18l0 -7zm-269 171l-18 1c-2,-7 -4,-12 -7,-15 -5,-5 -11,-8 -18,-8 -6,0 -11,2 -15,5 -6,4 -10,10 -13,18 -4,8 -5,19 -6,34 5,-7 10,-12 16,-15 7,-3 13,-4 20,-4 12,0 22,4 31,13 8,9 12,20 12,34 0,9 -2,18 -6,26 -4,7 -9,13 -16,18 -7,4 -15,6 -24,6 -14,0 -27,-6 -36,-17 -10,-11 -14,-29 -14,-54 0,-28 5,-49 15,-62 9,-11 22,-16 37,-16 12,0 21,3 29,9 7,7 11,16 13,27zm-74 63c0,6 2,12 4,18 3,6 7,10 11,13 5,3 10,4 15,4 8,0 14,-3 20,-9 5,-6 8,-14 8,-25 0,-10 -3,-18 -8,-24 -5,-6 -12,-9 -21,-9 -8,0 -15,3 -20,9 -6,6 -9,14 -9,23z"/>
   <path class="fil3" d="M12593 13488l115 0 0 146 -19 0 0 -129 -76 0 0 129 -20 0 0 -146zm214 133c-7,5 -13,9 -19,12 -6,2 -13,3 -20,3 -12,0 -21,-3 -27,-8 -6,-6 -9,-13 -9,-22 0,-5 1,-10 3,-14 3,-5 6,-8 10,-11 3,-2 8,-4 12,-6 4,0 9,-1 16,-2 15,-2 26,-4 33,-6 0,-3 0,-4 0,-5 0,-7 -2,-13 -5,-16 -5,-4 -12,-6 -21,-6 -8,0 -15,2 -19,5 -4,3 -7,8 -9,16l-17 -3c1,-7 4,-13 8,-18 3,-5 9,-8 16,-11 6,-2 15,-3 24,-3 9,0 16,1 22,3 5,2 10,5 12,8 3,3 5,7 6,12 1,3 1,9 1,17l0 23c0,17 0,28 1,32 1,4 2,9 4,13l-18 0c-2,-4 -3,-8 -4,-13zm-1 -40c-7,2 -17,5 -30,6 -7,1 -12,3 -16,4 -3,1 -5,3 -7,6 -1,2 -2,5 -2,8 0,5 2,9 5,12 4,3 9,5 16,5 7,0 13,-2 19,-5 5,-3 9,-7 12,-12 2,-4 3,-10 3,-18l0 -6zm54 -53l84 0 0 106 -18 0 0 -91 -48 0 0 52c0,13 0,21 -1,25 -1,4 -3,7 -7,10 -3,3 -8,4 -15,4 -4,0 -9,0 -15,0l0 -15 8 0c4,0 7,-1 8,-1 2,-1 3,-2 3,-4 1,-2 1,-7 1,-16l0 -70zm180 93c-7,5 -13,9 -19,12 -7,2 -13,3 -20,3 -12,0 -21,-3 -27,-8 -6,-6 -9,-13 -9,-22 0,-5 1,-10 3,-14 2,-5 6,-8 9,-11 4,-2 8,-4 13,-6 4,0 9,-1 16,-2 15,-2 26,-4 32,-6 0,-3 0,-4 0,-5 0,-7 -1,-13 -5,-16 -4,-4 -11,-6 -20,-6 -9,0 -15,2 -19,5 -4,3 -7,8 -9,16l-17 -3c1,-7 4,-13 7,-18 4,-5 9,-8 16,-11 7,-2 15,-3 25,-3 9,0 16,1 22,3 5,2 10,5 12,8 3,3 5,7 6,12 0,3 1,9 1,17l0 23c0,17 0,28 1,32 1,4 2,9 4,13l-19 0c-1,-4 -3,-8 -3,-13zm-2 -40c-6,2 -16,5 -29,6 -7,1 -13,3 -16,4 -3,1 -5,3 -7,6 -1,2 -2,5 -2,8 0,5 2,9 5,12 4,3 9,5 16,5 7,0 13,-2 19,-5 5,-3 9,-7 11,-12 2,-4 3,-10 3,-18l0 -6zm32 -53l86 0 0 15 -34 0 0 91 -18 0 0 -91 -34 0 0 -15zm170 93c-6,5 -13,9 -19,12 -6,2 -13,3 -20,3 -11,0 -20,-3 -27,-8 -6,-6 -9,-13 -9,-22 0,-5 1,-10 3,-14 3,-5 6,-8 10,-11 4,-2 8,-4 13,-6 3,0 9,-1 16,-2 14,-2 25,-4 32,-6 0,-3 0,-4 0,-5 0,-7 -2,-13 -5,-16 -5,-4 -12,-6 -21,-6 -8,0 -14,2 -18,5 -5,3 -7,8 -9,16l-18 -3c2,-7 4,-13 8,-18 4,-5 9,-8 16,-11 7,-2 15,-3 24,-3 9,0 16,1 22,3 6,2 10,5 13,8 2,3 4,7 5,12 1,3 1,9 1,17l0 23c0,17 0,28 1,32 1,4 2,9 5,13l-19 0c-2,-4 -3,-8 -4,-13zm-1 -40c-7,2 -16,5 -30,6 -7,1 -12,3 -15,4 -3,1 -6,3 -7,6 -2,2 -3,5 -3,8 0,5 2,9 6,12 3,3 9,5 16,5 6,0 13,-2 18,-5 5,-3 9,-7 12,-12 2,-4 3,-10 3,-18l0 -6zm-305 281l0 -35 -64 0 0 -16 67 -95 14 0 0 95 20 0 0 16 -20 0 0 35 -17 0zm0 -51l0 -66 -46 66 46 0z"/>
   <path class="fil3" d="M11559 13075l115 0 0 146 -20 0 0 -129 -76 0 0 129 -19 0 0 -146zm214 133c-7,6 -13,10 -20,12 -6,3 -12,4 -19,4 -12,0 -21,-3 -27,-9 -7,-5 -10,-13 -10,-22 0,-5 2,-9 4,-14 2,-4 5,-7 9,-10 4,-3 8,-5 13,-6 4,-1 9,-2 16,-3 15,-1 25,-3 32,-6 0,-2 0,-4 0,-4 0,-8 -1,-13 -5,-16 -4,-4 -11,-6 -20,-6 -9,0 -15,2 -19,5 -4,2 -7,8 -9,15l-18 -2c2,-8 5,-14 8,-18 4,-5 9,-9 16,-11 7,-3 15,-4 24,-4 9,0 17,1 22,3 6,2 10,5 13,8 3,4 5,8 6,13 0,3 0,8 0,16l0 24c0,17 1,27 2,32 0,4 2,8 4,12l-19 0c-2,-3 -3,-8 -3,-13zm-2 -40c-6,3 -16,5 -29,7 -8,1 -13,2 -16,4 -3,1 -5,3 -7,5 -2,3 -2,6 -2,9 0,5 1,9 5,12 4,3 9,5 16,5 7,0 13,-2 18,-5 6,-3 10,-7 12,-12 2,-4 3,-10 3,-18l0 -7zm55 -53l83 0 0 106 -18 0 0 -91 -47 0 0 53c0,12 -1,20 -1,24 -1,4 -3,8 -7,11 -4,3 -9,4 -15,4 -5,0 -9,0 -15,-1l0 -15 8 0c4,0 6,0 8,-1 1,-1 3,-2 3,-3 1,-2 1,-8 1,-17l0 -70zm180 93c-7,6 -14,10 -20,12 -6,3 -12,4 -20,4 -11,0 -20,-3 -26,-9 -7,-5 -10,-13 -10,-22 0,-5 1,-9 4,-14 2,-4 5,-7 9,-10 4,-3 8,-5 13,-6 4,-1 9,-2 16,-3 14,-1 25,-3 32,-6 0,-2 0,-4 0,-4 0,-8 -2,-13 -5,-16 -5,-4 -11,-6 -20,-6 -9,0 -15,2 -19,5 -4,2 -7,8 -9,15l-18 -2c2,-8 4,-14 8,-18 4,-5 9,-9 16,-11 7,-3 15,-4 24,-4 9,0 17,1 22,3 6,2 10,5 13,8 2,4 4,8 5,13 1,3 1,8 1,16l0 24c0,17 1,27 1,32 1,4 3,8 5,12l-19 0c-2,-3 -3,-8 -3,-13zm-2 -40c-6,3 -16,5 -29,7 -8,1 -13,2 -16,4 -3,1 -5,3 -7,5 -2,3 -3,6 -3,9 0,5 2,9 6,12 3,3 9,5 16,5 7,0 13,-2 18,-5 6,-3 10,-7 12,-12 2,-4 3,-10 3,-18l0 -7zm32 -53l86 0 0 15 -34 0 0 91 -18 0 0 -91 -34 0 0 -15zm170 93c-7,6 -13,10 -19,12 -6,3 -13,4 -20,4 -12,0 -21,-3 -27,-9 -6,-5 -9,-13 -9,-22 0,-5 1,-9 3,-14 3,-4 6,-7 9,-10 4,-3 9,-5 13,-6 4,-1 9,-2 16,-3 15,-1 26,-3 32,-6 1,-2 1,-4 1,-4 0,-8 -2,-13 -6,-16 -4,-4 -11,-6 -20,-6 -9,0 -15,2 -19,5 -4,2 -7,8 -9,15l-17 -2c1,-8 4,-14 8,-18 3,-5 9,-9 16,-11 6,-3 14,-4 24,-4 9,0 16,1 22,3 5,2 10,5 12,8 3,4 5,8 6,13 0,3 1,8 1,16l0 24c0,17 0,27 1,32 1,4 2,8 4,12l-19 0c-1,-3 -2,-8 -3,-13zm-1 -40c-7,3 -17,5 -30,7 -7,1 -13,2 -16,4 -3,1 -5,3 -7,5 -1,3 -2,6 -2,9 0,5 2,9 5,12 4,3 9,5 16,5 7,0 13,-2 19,-5 5,-3 9,-7 12,-12 2,-4 2,-10 2,-18l1 -7zm-363 243l18 -3c2,11 5,18 10,22 5,5 11,7 18,7 9,0 16,-3 22,-9 6,-5 9,-13 9,-21 0,-9 -3,-15 -9,-21 -5,-5 -12,-8 -20,-8 -3,0 -8,1 -13,2l2 -16c1,1 2,1 3,1 8,0 15,-2 21,-6 6,-4 9,-10 9,-19 0,-6 -2,-12 -7,-16 -4,-4 -10,-7 -17,-7 -7,0 -13,3 -17,7 -5,5 -8,11 -9,20l-18 -3c2,-12 7,-22 15,-28 7,-7 17,-10 29,-10 8,0 15,1 22,5 6,3 12,8 15,14 4,6 5,12 5,19 0,6 -1,12 -5,17 -3,5 -8,9 -15,12 9,2 16,6 20,13 5,6 8,14 8,23 0,13 -5,24 -14,33 -10,9 -21,13 -36,13 -13,0 -23,-4 -32,-11 -8,-8 -13,-18 -14,-30z"/>
   <path class="fil3" d="M8456 11838l115 0 0 146 -20 0 0 -129 -76 0 0 129 -19 0 0 -146zm214 133c-7,6 -13,10 -20,12 -6,2 -12,4 -19,4 -12,0 -21,-3 -27,-9 -7,-6 -10,-13 -10,-22 0,-5 2,-10 4,-14 2,-4 5,-8 9,-10 4,-3 8,-5 13,-6 4,-1 9,-2 16,-3 15,-1 25,-3 32,-6 0,-2 0,-4 0,-5 0,-7 -1,-12 -5,-15 -4,-4 -11,-6 -20,-6 -9,0 -15,1 -19,4 -4,3 -7,9 -9,16l-18 -2c2,-8 5,-14 8,-19 4,-4 9,-8 16,-10 7,-3 15,-4 24,-4 9,0 17,1 22,3 6,2 10,5 13,8 3,4 4,8 6,13 0,3 0,8 0,16l0 24c0,17 1,27 2,32 0,4 2,8 4,12l-19 0c-2,-3 -3,-8 -3,-13zm-2 -40c-6,3 -16,5 -29,7 -8,1 -13,2 -16,4 -3,1 -5,3 -7,5 -2,3 -2,6 -2,9 0,5 1,9 5,12 4,3 9,4 16,4 7,0 13,-1 18,-4 6,-3 10,-7 12,-12 2,-4 3,-10 3,-18l0 -7zm55 -53l83 0 0 106 -18 0 0 -91 -47 0 0 53c0,12 -1,20 -1,24 -1,4 -3,8 -7,11 -4,2 -9,4 -15,4 -5,0 -10,0 -15,-1l0 -15 8 0c4,0 6,0 8,-1 1,-1 3,-2 3,-4 1,-1 1,-7 1,-16l0 -70zm180 93c-7,6 -14,10 -20,12 -6,2 -12,4 -20,4 -11,0 -20,-3 -26,-9 -7,-6 -10,-13 -10,-22 0,-5 1,-10 4,-14 2,-4 5,-8 9,-10 4,-3 8,-5 13,-6 3,-1 9,-2 16,-3 14,-1 25,-3 32,-6 0,-2 0,-4 0,-5 0,-7 -2,-12 -5,-15 -5,-4 -11,-6 -20,-6 -9,0 -15,1 -19,4 -4,3 -7,9 -9,16l-18 -2c2,-8 4,-14 8,-19 4,-4 9,-8 16,-10 7,-3 15,-4 24,-4 9,0 17,1 22,3 6,2 10,5 13,8 2,4 4,8 5,13 1,3 1,8 1,16l0 24c0,17 1,27 1,32 1,4 3,8 5,12l-19 0c-2,-3 -3,-8 -3,-13zm-2 -40c-6,3 -16,5 -29,7 -8,1 -13,2 -16,4 -3,1 -5,3 -7,5 -2,3 -3,6 -3,9 0,5 2,9 6,12 3,3 9,4 16,4 7,0 13,-1 18,-4 6,-3 10,-7 12,-12 2,-4 3,-10 3,-18l0 -7zm32 -53l86 0 0 15 -34 0 0 91 -18 0 0 -91 -34 0 0 -15zm170 93c-7,6 -13,10 -19,12 -6,2 -13,4 -20,4 -12,0 -21,-3 -27,-9 -6,-6 -9,-13 -9,-22 0,-5 1,-10 3,-14 3,-4 6,-8 9,-10 4,-3 9,-5 13,-6 4,-1 9,-2 16,-3 15,-1 26,-3 32,-6 1,-2 1,-4 1,-5 0,-7 -2,-12 -6,-15 -4,-4 -11,-6 -20,-6 -9,0 -15,1 -19,4 -4,3 -7,9 -9,16l-17 -2c1,-8 4,-14 8,-19 3,-4 9,-8 15,-10 7,-3 15,-4 25,-4 9,0 16,1 22,3 5,2 10,5 12,8 3,4 5,8 6,13 0,3 1,8 1,16l0 24c0,17 0,27 1,32 1,4 2,8 4,12l-19 0c-1,-3 -3,-8 -3,-13zm-1 -40c-7,3 -17,5 -30,7 -7,1 -13,2 -16,4 -3,1 -5,3 -7,5 -1,3 -2,6 -2,9 0,5 2,9 5,12 4,3 9,4 16,4 7,0 13,-1 19,-4 5,-3 9,-7 12,-12 1,-4 2,-10 2,-18l1 -7zm-269 264l0 18 -97 0c0,-5 1,-9 2,-13 3,-6 7,-13 12,-19 6,-7 13,-14 24,-22 15,-13 26,-24 32,-31 6,-8 8,-15 8,-22 0,-7 -2,-13 -7,-18 -5,-5 -12,-7 -20,-7 -9,0 -16,2 -21,7 -5,6 -8,13 -8,22l-18 -2c1,-14 6,-24 14,-31 8,-8 19,-11 33,-11 14,0 25,4 33,11 9,8 13,18 13,29 0,6 -1,12 -4,18 -2,5 -6,11 -12,18 -5,6 -15,14 -27,25 -11,9 -18,15 -21,19 -3,3 -6,6 -8,9l72 0z"/>
   <path class="fil3" d="M7422 11426l115 0 0 146 -20 0 0 -129 -76 0 0 129 -19 0 0 -146zm213 133c-6,5 -13,9 -19,12 -6,2 -13,3 -20,3 -11,0 -20,-3 -27,-8 -6,-6 -9,-13 -9,-22 0,-5 1,-10 4,-14 2,-5 5,-8 9,-11 4,-2 8,-4 13,-5 3,-1 9,-2 16,-3 14,-2 25,-4 32,-6 0,-3 0,-4 0,-5 0,-7 -2,-12 -5,-15 -5,-4 -12,-6 -21,-6 -8,0 -14,1 -18,4 -4,3 -7,8 -9,16l-18 -3c2,-7 4,-13 8,-18 4,-5 9,-8 16,-11 7,-2 15,-3 24,-3 9,0 16,1 22,3 6,2 10,5 13,8 2,3 4,7 5,12 1,3 1,9 1,17l0 24c0,16 0,27 1,31 1,5 2,9 5,13l-19 0c-2,-4 -3,-8 -4,-13zm-1 -40c-7,3 -16,5 -29,7 -8,1 -13,2 -16,3 -3,1 -6,3 -7,6 -2,3 -3,5 -3,8 0,5 2,9 6,12 3,4 9,5 16,5 6,0 13,-1 18,-4 5,-3 9,-8 12,-13 2,-4 3,-10 3,-18l0 -6zm55 -53l83 0 0 106 -18 0 0 -91 -48 0 0 53c0,12 0,20 -1,24 -1,4 -3,7 -6,10 -4,3 -9,5 -16,5 -4,0 -9,-1 -14,-1l0 -15 8 0c3,0 6,-1 8,-1 1,-1 2,-2 3,-4 0,-2 1,-7 1,-16l0 -70zm179 93c-6,5 -13,9 -19,12 -6,2 -13,3 -20,3 -12,0 -21,-3 -27,-8 -6,-6 -9,-13 -9,-22 0,-5 1,-10 3,-14 3,-5 6,-8 10,-11 4,-2 8,-4 13,-5 3,-1 8,-2 16,-3 14,-2 25,-4 32,-6 0,-3 0,-4 0,-5 0,-7 -2,-12 -5,-15 -5,-4 -12,-6 -21,-6 -8,0 -15,1 -19,4 -4,3 -7,8 -9,16l-17 -3c1,-7 4,-13 8,-18 3,-5 9,-8 16,-11 7,-2 15,-3 24,-3 9,0 16,1 22,3 6,2 10,5 12,8 3,3 5,7 6,12 1,3 1,9 1,17l0 24c0,16 0,27 1,31 1,5 2,9 4,13l-18 0c-2,-4 -3,-8 -4,-13zm-1 -40c-7,3 -17,5 -30,7 -7,1 -12,2 -15,3 -3,1 -6,3 -7,6 -2,3 -3,5 -3,8 0,5 2,9 5,12 4,4 9,5 16,5 7,0 13,-1 19,-4 5,-3 9,-8 12,-13 2,-4 3,-10 3,-18l0 -6zm32 -53l86 0 0 15 -34 0 0 91 -18 0 0 -91 -34 0 0 -15zm170 93c-7,5 -13,9 -20,12 -6,2 -12,3 -19,3 -12,0 -21,-3 -27,-8 -7,-6 -10,-13 -10,-22 0,-5 1,-10 4,-14 2,-5 5,-8 9,-11 4,-2 8,-4 13,-5 4,-1 9,-2 16,-3 15,-2 25,-4 32,-6 0,-3 0,-4 0,-5 0,-7 -1,-12 -5,-15 -4,-4 -11,-6 -20,-6 -9,0 -15,1 -19,4 -4,3 -7,8 -9,16l-18 -3c2,-7 5,-13 8,-18 4,-5 9,-8 16,-11 7,-2 15,-3 24,-3 9,0 17,1 22,3 6,2 10,5 13,8 3,3 4,7 6,12 0,3 0,9 0,17l0 24c0,16 1,27 2,31 0,5 2,9 4,13l-19 0c-2,-4 -3,-8 -3,-13zm-2 -40c-6,3 -16,5 -29,7 -8,1 -13,2 -16,3 -3,1 -5,3 -7,6 -2,3 -3,5 -3,8 0,5 2,9 6,12 4,4 9,5 16,5 7,0 13,-1 18,-4 6,-3 10,-8 12,-13 2,-4 3,-10 3,-18l0 -6zm-295 281l-18 0 0 -114c-4,4 -10,8 -17,12 -7,4 -14,7 -19,9l0 -17c10,-5 19,-10 26,-17 8,-7 13,-13 16,-20l12 0 0 147z"/>
   <polygon class="fil4" points="19669,14437 19703,14437 19703,15537 19669,15537 "/>
   <path class="fil1" d="M19694 15517l494 0 0 -103 -494 0 0 103zm502 16l-510 0 -8 0 0 -8 0 -119 0 -8 8 0 510 0 8 0 0 8 0 119 0 8 -8 0z"/>
   <path class="fil1" d="M19694 15398l494 0 0 -103 -494 0 0 103zm502 16l-510 0 -8 0 0 -8 0 -119 0 -8 8 0 510 0 8 0 0 8 0 119 0 8 -8 0z"/>
   <path class="fil1" d="M19694 15279l494 0 0 -102 -494 0 0 102zm502 16l-510 0 -8 0 0 -8 0 -118 0 -8 8 0 510 0 8 0 0 8 0 118 0 8 -8 0z"/>
   <path class="fil1" d="M19694 15161l494 0 0 -103 -494 0 0 103zm502 16l-510 0 -8 0 0 -8 0 -119 0 -8 8 0 510 0 8 0 0 8 0 119 0 8 -8 0z"/>
   <path class="fil1" d="M19694 15042l494 0 0 -103 -494 0 0 103zm502 16l-510 0 -8 0 0 -8 0 -119 0 -8 8 0 510 0 8 0 0 8 0 119 0 8 -8 0z"/>
   <path class="fil1" d="M19694 14923l494 0 0 -102 -494 0 0 102zm502 16l-510 0 -8 0 0 -8 0 -118 0 -9 8 0 510 0 8 0 0 9 0 118 0 8 -8 0z"/>
   <path class="fil1" d="M19694 14804l494 0 0 -102 -494 0 0 102zm502 17l-510 0 -8 0 0 -8 0 -119 0 -8 8 0 510 0 8 0 0 8 0 119 0 8 -8 0z"/>
   <path class="fil1" d="M19694 14686l494 0 0 -103 -494 0 0 103zm502 16l-510 0 -8 0 0 -8 0 -119 0 -8 8 0 510 0 8 0 0 8 0 119 0 8 -8 0z"/>
   <path class="fil1" d="M19694 14567l494 0 0 -103 -494 0 0 103zm502 16l-510 0 -8 0 0 -8 0 -119 0 -8 8 0 510 0 8 0 0 8 0 119 0 8 -8 0z"/>
   <path class="fil1" d="M19184 15517l494 0 0 -103 -494 0 0 103zm502 16l-510 0 -8 0 0 -8 0 -119 0 -8 8 0 510 0 8 0 0 8 0 119 0 8 -8 0z"/>
   <path class="fil1" d="M19184 15398l494 0 0 -103 -494 0 0 103zm502 16l-510 0 -8 0 0 -8 0 -119 0 -8 8 0 510 0 8 0 0 8 0 119 0 8 -8 0z"/>
   <path class="fil1" d="M19184 15279l494 0 0 -102 -494 0 0 102zm502 16l-510 0 -8 0 0 -8 0 -118 0 -8 8 0 510 0 8 0 0 8 0 118 0 8 -8 0z"/>
   <path class="fil1" d="M19184 15161l494 0 0 -103 -494 0 0 103zm502 16l-510 0 -8 0 0 -8 0 -119 0 -8 8 0 510 0 8 0 0 8 0 119 0 8 -8 0z"/>
   <path class="fil1" d="M19184 15042l494 0 0 -103 -494 0 0 103zm502 16l-510 0 -8 0 0 -8 0 -119 0 -8 8 0 510 0 8 0 0 8 0 119 0 8 -8 0z"/>
   <path class="fil1" d="M19184 14923l494 0 0 -102 -494 0 0 102zm502 16l-510 0 -8 0 0 -8 0 -118 0 -9 8 0 510 0 8 0 0 9 0 118 0 8 -8 0z"/>
   <path class="fil1" d="M19184 14804l494 0 0 -102 -494 0 0 102zm502 17l-510 0 -8 0 0 -8 0 -119 0 -8 8 0 510 0 8 0 0 8 0 119 0 8 -8 0z"/>
   <path class="fil1" d="M19184 14686l494 0 0 -103 -494 0 0 103zm502 16l-510 0 -8 0 0 -8 0 -119 0 -8 8 0 510 0 8 0 0 8 0 119 0 8 -8 0z"/>
   <path class="fil1" d="M19184 14567l494 0 0 -103 -494 0 0 103zm502 16l-510 0 -8 0 0 -8 0 -119 0 -8 8 0 510 0 8 0 0 8 0 119 0 8 -8 0z"/>
   <polygon class="fil1" points="12899,11640 9133,10139 9145,10109 12911,11610 "/>
   <polygon class="fil1" points="19176,13091 18198,13088 18195,13088 18192,13087 9735,9716 9747,9686 18201,13056 19176,13059 "/>
   <polygon class="fil1" points="10036,9818 10100,9658 10130,9669 10066,9830 "/>
   <polygon class="fil1" points="10255,9269 10384,8947 10413,8959 10285,9280 "/>
   <polygon class="fil1" points="10539,8558 10667,8237 10697,8249 10569,8570 "/>
   <polygon class="fil1" points="10907,7679 11766,8021 11754,8051 10895,7708 "/>
   <polygon class="fil1" points="9075,11098 9171,10859 9177,10844 9191,10850 9745,11071 9760,11076 9754,11091 9057,12839 9051,12854 9036,12848 6968,12023 6953,12017 6959,12002 7656,10255 7661,10240 7676,10246 8230,10466 8245,10472 8239,10487 8144,10726 8114,10714 8203,10490 7679,10282 6994,11999 9033,12812 9718,11094 9195,10886 9105,11109 "/>
   <polygon class="fil1" points="7993,12415 8595,10906 8624,10918 8023,12427 "/>
   <polygon class="fil1" points="10822,7848 10887,7688 10916,7699 10852,7860 "/>
   <polygon class="fil1" points="10058,9809 10916,10152 10904,10181 10046,9839 "/>
   <line class="fil2" x1="10335" y1="9114" x2="11193" y2= "9456" />
   <line class="fil2" x1="10618" y1="8404" x2="11476" y2= "8746" />
   <line class="fil2" x1="9860" y1="7279" x2="9796" y2= "7439" />
   <line class="fil2" x1="9641" y1="7828" x2="9293" y2= "8699" />
   <polygon class="fil1" points="9656,7834 9308,8705 9278,8693 9626,7822 "/>
   <line class="fil2" x1="9358" y1="8538" x2="9229" y2= "8860" />
   <line class="fil2" x1="9074" y1="9248" x2="9010" y2= "9409" />
   <polygon class="fil1" points="10341,9099 11199,9441 11187,9471 10329,9129 "/>
   <polygon class="fil1" points="10624,8389 11482,8731 11471,8761 10612,8419 "/>
   <polygon class="fil1" points="9875,7285 9811,7445 9781,7433 9846,7273 "/>
   <polygon class="fil1" points="9372,8544 9244,8865 9214,8854 9343,8532 "/>
   <polygon class="fil1" points="9089,9254 9025,9415 8995,9403 9059,9243 "/>
   <polygon class="fil1" points="9004,9424 8146,9082 8158,9052 9016,9394 "/>
   <polygon class="fil1" points="9854,7293 8995,6951 9007,6921 9865,7263 "/>
   <polygon class="fil1" points="9570,8003 8712,7661 8724,7631 9582,7974 "/>
   <polygon class="fil1" points="9287,8714 8429,8372 8441,8342 9299,8684 "/>
  </g>
 </g>
</svg>
